Coordinates
version=1
nRows=26
nColumns=18
inDegrees=yes

Units are S.I. units (second, meters, Newtons, ...)
If the header above contains a line with 'inDegrees', this indicates whether rotational values are in degrees (yes) or radians (no).

endheader
time	TH_y	TH_x	TH_z	TH_x_trans	TH_y_trans	TH_z_trans	SC_y	SC_z	SC_x	AC_y	AC_z	AC_x	GH_y	GH_z	GH_yy	EL_x	PS_y
     10.00000000	     33.13668063	      0.73256260	      0.35449907	      0.47153260	      1.37625815	     -0.26742433	    -13.28301629	     -7.39291207	    -11.82162160	     84.76096984	     -5.31089298	      1.12481578	    -32.88187112	     35.21025637	    -15.72567717	      5.26010961	     90.11629706
     10.01000000	     33.12380936	      0.78057744	      0.36033805	      0.47140375	      1.37618335	     -0.26718666	    -13.17817825	     -7.34609351	    -11.76331682	     84.63862038	     -5.23214988	      1.41172642	    -32.93582786	     35.12218776	    -15.90930207	      4.78093308	     90.11575454
     10.02000000	     33.14078515	      0.77216866	      0.37688551	      0.47126610	      1.37621602	     -0.26711024	    -13.11199312	     -7.31727552	    -11.64047521	     84.45981735	     -5.09173930	      1.74265545	    -33.03057908	     34.95127968	    -16.27056568	      4.35834140	     90.24414993
     10.03000000	     33.23405471	      0.74268872	      0.39814478	      0.47106279	      1.37627159	     -0.26708131	    -13.29150856	     -7.34500613	    -11.47747179	     84.47854763	     -4.93450132	      1.83117201	    -33.02563400	     34.74128389	    -16.65868672	      3.99991478	     90.92242716
     10.04000000	     33.24632535	      0.76655842	      0.40186211	      0.47093255	      1.37626997	     -0.26693742	    -13.29512597	     -7.34050578	    -11.41652711	     84.38662726	     -4.86468715	      2.06832725	    -33.07907330	     34.68555587	    -16.81594626	      3.65041656	     90.92175201
     10.05000000	     33.28169968	      0.77299093	      0.41640130	      0.47079079	      1.37628256	     -0.26682173	    -13.26796119	     -7.28372036	    -11.28242344	     84.19741735	     -4.71258947	      2.37980614	    -33.18677739	     34.45293984	    -17.26020968	      3.34426903	     91.97454787
     10.06000000	     33.29985464	      0.77239543	      0.41506965	      0.47069305	      1.37630855	     -0.26674755	    -13.20218305	     -7.17023512	    -11.16483321	     84.28614836	     -4.57828859	      2.37839471	    -33.07181687	     34.05161385	    -17.68077237	      3.09112987	     91.21547654
     10.07000000	     33.33611535	      0.79846207	      0.45814741	      0.47042887	      1.37630513	     -0.26651498	    -13.08058970	     -6.74532168	    -10.59286074	     84.94473309	     -3.98257214	      1.34643176	    -32.44313084	     32.13676811	    -19.63903170	      2.80713778	     91.51706906
     10.08000000	     33.31454976	      0.83075413	      0.45465506	      0.47031584	      1.37632426	     -0.26633676	    -13.01880031	     -6.74777020	    -10.54332643	     84.84768362	     -3.92391919	      1.53052964	    -32.49442275	     32.09043899	    -19.76345933	      2.56351918	     91.40814616
     10.09000000	     33.35903884	      0.82762334	      0.48743536	      0.47015671	      1.37636401	     -0.26621231	    -13.03977122	     -6.82106670	    -10.44986784	     84.75959908	     -3.83264272	      1.72972923	    -32.54912874	     32.08288720	    -19.89657869	      2.21124186	     91.39318166
     10.10000000	     33.41991087	      0.84552885	      0.46405919	      0.47008473	      1.37636902	     -0.26611826	    -13.10119560	     -6.79721993	    -10.40331380	     84.62668188	     -3.77259231	      2.02010554	    -32.65075124	     32.11356150	    -20.00247898	      2.00382463	     92.72158121
     10.11000000	     33.45489906	      0.87798109	      0.46427662	      0.47003256	      1.37637759	     -0.26596335	    -13.10515093	     -6.80786837	    -10.35815360	     84.54220338	     -3.72334416	      2.16855576	    -32.70740671	     32.09435871	    -20.10690784	      1.90258101	     92.56911659
     10.12000000	     33.47367006	      0.89054622	      0.47178986	      0.46995088	      1.37640857	     -0.26583709	    -13.08477481	     -6.81229396	    -10.34023092	     84.55005536	     -3.70118698	      2.27911255	    -32.68991135	     32.06745974	    -20.13333990	      1.74461258	     92.54481314
     10.13000000	     33.52418108	      0.92510474	      0.47109251	      0.46993579	      1.37640575	     -0.26567858	    -12.95880135	     -6.74319514	    -10.31166384	     84.41421019	     -3.65082055	      2.53690781	    -32.75872910	     31.98223517	    -20.28901947	      1.55209749	     92.47419921
     10.14000000	     33.51580671	      0.94918098	      0.45348193	      0.46999016	      1.37644604	     -0.26559128	    -12.78792565	     -6.59760751	    -10.36965033	     84.43793452	     -3.67872859	      2.70356196	    -32.70553473	     31.85757298	    -20.30757345	      1.49386803	     92.44080981
     10.15000000	     33.53849883	      0.98773664	      0.46661914	      0.46996116	      1.37644615	     -0.26539532	    -12.75761508	     -6.59012158	    -10.33360863	     84.41837337	     -3.63616548	      2.83713260	    -32.70449586	     31.80366665	    -20.38905037	      1.28750077	     92.41504882
     10.16000000	     33.62189757	      0.99460930	      0.49294109	      0.46975668	      1.37648361	     -0.26521163	    -12.90149402	     -6.68564057	    -10.08909491	     84.28717468	     -3.40664413	      2.91855868	    -32.79867505	     31.64649179	    -20.84357987	      0.97075373	     93.52156739
     10.17000000	     33.66924708	      1.01897821	      0.50782126	      0.46964963	      1.37650193	     -0.26502502	    -12.91103068	     -6.62778713	     -9.98830053	     84.27216303	     -3.29667286	      2.98423336	    -32.79178504	     31.43434986	    -21.13373675	      0.78218903	     94.25009040
     10.18000000	     33.70522226	      1.02031806	      0.48734780	      0.46960929	      1.37654025	     -0.26495089	    -12.89406557	     -6.61656574	     -9.92184116	     84.18135130	     -3.22304619	      3.15465141	    -32.84670125	     31.40326031	    -21.26893940	      0.61210696	     94.20228129
     10.19000000	     33.74965254	      1.01814434	      0.48645655	      0.46952466	      1.37661221	     -0.26485612	    -12.85599682	     -6.56743806	     -9.80664609	     84.09863319	     -3.09754172	      3.26433924	    -32.87721274	     31.20071618	    -21.58307820	      0.44640805	     94.74175312
     10.20000000	     33.77501690	      1.03524451	      0.50103185	      0.46938213	      1.37663872	     -0.26466908	    -13.01219414	     -6.63190774	     -9.85902153	     84.42321439	     -3.16952872	      3.00812248	    -32.66336090	     31.20281026	    -21.36880156	      0.49418392	     94.11296168
     10.21000000	     33.81486914	      1.04978634	      0.49826907	      0.46929725	      1.37664195	     -0.26452379	    -12.98082736	     -6.60224275	     -9.81407990	     84.33595096	     -3.11502473	      3.15221970	    -32.71693991	     31.18067033	    -21.47589385	      0.40474488	     94.06747763
     10.22000000	     33.87785346	      1.05714024	      0.52531540	      0.46911308	      1.37668294	     -0.26432709	    -13.03892774	     -6.65935992	     -9.72731994	     84.17551006	     -3.03221441	      3.32375997	    -32.84103927	     31.20765847	    -21.63171747	      0.25663462	     95.67607943
     10.23000000	     33.91351023	      1.06008034	      0.50997743	      0.46907961	      1.37672202	     -0.26423924	    -12.83136754	     -6.58450966	     -9.63442280	     83.87703804	     -2.91587588	      3.63492881	    -33.01510674	     31.14409762	    -21.90456322	      0.06817321	     95.61269670
     10.24000000	     33.92605186	      1.06725658	      0.48308352	      0.46909662	      1.37677896	     -0.26417094	    -12.66389272	     -6.47710288	     -9.61936907	     83.79853637	     -2.87892251	      3.78340110	    -33.03461643	     31.05432955	    -22.00954125	     -0.07209384	     95.70583546
     10.25000000	     33.96422995	      1.08531113	      0.50841094	      0.46898498	      1.37677634	     -0.26397905	    -12.70908418	     -6.42087113	     -9.48639444	     83.76938352	     -2.73915961	      3.82047385	    -33.02906741	     30.81570286	    -22.34375409	     -0.20188402	     97.18155358
